<svg width="512" height="147" viewBox="0 0 512 147" fill="none" xmlns="http://www.w3.org/2000/svg">
<path d="M168.97 37.4977C162.032 32.911 153.851 30.5699 145.537 30.792H116.724V119.44H134.594V87.3117H144.579C152.999 87.4369 161.263 85.0371 168.307 80.4218C171.777 78.0716 174.568 74.8493 176.398 71.0786C178.229 67.308 179.034 63.1219 178.734 58.9413C178.734 49.116 175.479 41.9682 168.97 37.4977ZM155.706 69.221C152.755 71.5459 149.068 72.7356 145.315 72.5738H134.594V45.6772H145.058C149.019 45.4299 152.939 46.6059 156.111 48.9932C157.506 50.3488 158.584 51.9971 159.266 53.8192C159.947 55.6414 160.216 57.5921 160.053 59.5308C160.042 61.3595 159.65 63.1657 158.901 64.8342C158.152 66.5027 157.064 67.9967 155.706 69.221Z" fill="#39B75D"/>
<path d="M197.009 67.3787L191.592 59.236H182.529V119.44H200.398V82.006C203.218 79.4343 206.474 77.3878 210.015 75.9635C212.96 74.8074 216.098 74.2198 219.263 74.2318V59.236C214.6 59.0405 209.954 59.8968 205.667 61.7415C202.556 63.2494 199.646 65.1434 197.009 67.3787Z" fill="#39B75D"/>
<path d="M245.791 59.3465H227.921V119.477H245.791V59.3465Z" fill="#39B75D"/>
<path d="M236.801 30.7183C235.504 30.6941 234.216 30.9442 233.023 31.4522C231.829 31.9601 230.756 32.7145 229.874 33.6659C228.032 35.5846 227.026 38.1546 227.074 40.8137C227.01 42.1685 227.225 43.5219 227.707 44.7898C228.188 46.0576 228.926 47.2125 229.874 48.1827C230.758 49.1292 231.832 49.878 233.026 50.3797C234.22 50.8813 235.506 51.1246 236.801 51.0934C238.122 51.1187 239.434 50.8735 240.657 50.373C241.88 49.8724 242.988 49.127 243.912 48.1827C244.901 47.2363 245.676 46.089 246.185 44.8178C246.693 43.5467 246.923 42.1813 246.859 40.8137C246.859 38.1329 245.797 35.5612 243.905 33.6621C242.013 31.763 239.445 30.6912 236.764 30.6814L236.801 30.7183Z" fill="#39B75D"/>
<path d="M293.284 57.0991C289.271 57.1538 285.306 57.9793 281.604 59.5308C277.95 60.8821 274.568 62.8789 271.619 65.426L266.866 59.2361H257.618V119.44H275.525V77.4374C277.558 75.9958 279.73 74.7614 282.009 73.7529C284.056 72.8014 286.275 72.275 288.531 72.2054C289.796 72.1376 291.061 72.339 292.242 72.7963C293.423 73.2536 294.494 73.9564 295.384 74.8582C297.145 76.9967 298.04 79.7186 297.889 82.4851V119.33H315.759V81.8956C315.965 75.6132 314.158 69.4293 310.601 64.247C307.137 59.494 301.39 57.0991 293.284 57.0991Z" fill="#39B75D"/>
<path d="M393.391 59.3465H375.521V119.477H393.391V59.3465Z" fill="#39B75D"/>
<path d="M429.351 59.2361V55.8832C429.221 53.3467 429.892 50.8335 431.267 48.6985C431.982 47.7742 432.915 47.0415 433.982 46.5657C435.05 46.0899 436.218 45.8859 437.383 45.972C438.505 45.9884 439.619 46.1494 440.699 46.451C441.958 46.819 443.189 47.2745 444.384 47.8142L449.505 35.0291C447.733 33.6404 445.705 32.6138 443.536 32.0078C441.166 31.1805 438.678 30.7449 436.167 30.7183C429.637 30.4233 423.23 32.5635 418.187 36.724C415.835 38.842 413.988 41.4611 412.783 44.3881C411.578 47.3151 411.045 50.4753 411.224 53.6357V59.2361H401.865V74.7845H411.224V119.44H429.13V74.8951H445.821L440.81 59.2361H429.351Z" fill="#39B75D"/>
<path d="M490.808 59.2361L478.428 94.9754C476.328 89.0066 474.191 83.0746 471.981 77.1057C469.77 71.1369 467.633 65.2049 465.422 59.2361H446.521L466.822 111.15C468.114 114.43 468.114 118.077 466.822 121.356C465.557 124.166 463.338 126.437 460.559 127.767C457.619 129.394 454.579 130.834 451.458 132.078L457.648 146.816C463.194 145.396 468.403 142.892 472.975 139.447C477.469 136.306 480.971 131.947 483.071 126.883L509.304 59.2361H490.808Z" fill="#39B75D"/>
<path d="M384.364 30.7551C383.052 30.7299 381.75 30.9828 380.544 31.4972C379.337 32.0116 378.253 32.7758 377.363 33.7395C376.437 34.6738 375.709 35.7849 375.222 37.0066C374.734 38.2283 374.498 39.5356 374.526 40.8506C374.494 42.1661 374.728 43.4747 375.216 44.6969C375.703 45.9192 376.434 47.0299 377.363 47.9616C378.269 48.898 379.358 49.6368 380.563 50.1314C381.768 50.626 383.062 50.8657 384.364 50.8355C385.722 50.875 387.074 50.641 388.34 50.1473C389.606 49.6536 390.76 48.9103 391.733 47.9616C392.689 47.0404 393.449 45.9359 393.969 44.7141C394.488 43.4923 394.756 42.1782 394.756 40.8506C394.756 39.5229 394.488 38.2089 393.969 36.987C393.449 35.7652 392.689 34.6607 391.733 33.7395C390.776 32.7622 389.627 31.9927 388.359 31.4792C387.091 30.9657 385.731 30.7192 384.364 30.7551Z" fill="#39B75D"/>
<path d="M359.715 103.45C358.622 103.749 357.495 103.91 356.362 103.929C355.201 104.018 354.037 103.816 352.975 103.34C351.913 102.863 350.987 102.128 350.282 101.202C348.894 99.0714 348.211 96.5579 348.33 94.0175V75.5951H364.357L359.199 60.1203H348.33V40.8137H330.46V59.2361H321.102V74.7845H330.46V96.4124C330.277 99.5698 330.804 102.728 332.002 105.655C333.201 108.582 335.041 111.203 337.387 113.324C342.429 117.485 348.837 119.625 355.367 119.33C357.876 119.296 360.364 118.861 362.736 118.04C364.89 117.426 366.905 116.4 368.668 115.019L363.583 102.123C362.325 102.653 361.033 103.096 359.715 103.45Z" fill="#39B75D"/>
<path d="M23.6174 47.4089C24.5386 42.4348 25.1649 39.4136 25.4965 37.8661C27.523 27.3653 25.4965 20.1806 20.2277 19.2227C17.3907 18.7068 15.4748 20.4385 14.2221 25.302C11.5692 35.3975 3.68447 65.647 3.68447 65.647L13.1167 52.9724C14.3465 51.3261 15.9262 49.9731 17.7421 49.011C19.5579 48.0489 21.5646 47.5017 23.6174 47.4089Z" fill="#39B75D"/>
<path d="M16.8748 61.631C17.8736 60.2871 19.1743 59.1969 20.6719 58.4481C22.1695 57.6993 23.8221 57.3129 25.4965 57.3201C27.4186 57.3114 29.3058 57.8342 30.9495 58.8308C31.2811 58.8308 38.3184 64.1364 42.5556 67.305H50.6614C55.6486 67.2992 60.5668 66.139 65.0308 63.9153C67.0152 62.8349 68.651 61.2119 69.7469 59.236C70.2589 58.0753 70.3501 56.7723 70.0049 55.5516C69.8325 55.0649 69.5597 54.6199 69.2042 54.2454C68.8488 53.8709 68.4186 53.5753 67.9416 53.3777C66.7842 52.8622 65.5229 52.6225 64.2571 52.6777H23.7279C22.4328 52.7171 21.1633 53.0491 20.0148 53.6489C18.8662 54.2487 17.8683 55.1007 17.0959 56.1411L0.810529 78.2848C0.557298 78.7514 0.359452 79.246 0.221014 79.7585C0.0779673 80.39 0.0696595 81.0445 0.196632 81.6793C0.323605 82.3142 0.583005 82.9152 0.957907 83.443L16.8748 61.631Z" fill="#39B75D"/>
<path d="M14.5168 78.8743C15.3505 77.7433 16.3991 76.7878 17.6026 76.0626C18.806 75.3373 20.1407 74.8565 21.5301 74.6478C22.9196 74.439 24.3366 74.5064 25.7001 74.8459C27.0635 75.1855 28.3465 75.7907 29.4758 76.6268L42.9978 86.5748C44.6794 87.7339 46.0775 89.2579 47.0876 91.033C47.5588 91.9074 47.8824 92.8535 48.0455 93.8332C49.3561 94.2608 50.6992 94.5811 52.0616 94.7912C54.2598 95.1238 56.5073 94.8301 58.5463 93.9438C59.7786 93.2982 60.7154 92.2032 61.1622 90.8857C61.3087 90.3957 61.3517 89.8806 61.2882 89.3731C61.2248 88.8656 61.0564 88.3769 60.7938 87.9381C60.1501 86.8368 59.269 85.8928 58.2147 85.1747L28.7389 63.5469L28.2231 63.2153C27.3653 62.7042 26.3845 62.4367 25.386 62.4416C24.6393 62.4323 23.8985 62.5744 23.2082 62.8594C22.518 63.1443 21.8926 63.5662 21.37 64.0996L20.891 64.6891L0.663242 92.3963C0.203217 93.1625 -0.0179514 94.0485 0.0279886 94.9411C0.0739285 95.8336 0.384891 96.6922 0.921155 97.4072L14.5168 78.8743Z" fill="#39B75D"/>
<path d="M40.5292 47.4089H57.7725C57.4142 46.6114 57.0082 45.8363 56.5567 45.0877C54.6787 41.9047 52.317 39.0333 49.5562 36.5765C48.3813 35.3595 46.8665 34.5255 45.2098 34.1836C43.5532 33.8418 41.8319 34.008 40.2713 34.6606C39.0089 35.4391 38.1014 36.681 37.7433 38.1203C37.3852 39.5595 37.6049 41.0818 38.3554 42.3611L40.5292 47.4089Z" fill="#39B75D"/>
<path d="M66.7994 68.742C65.6204 69.3315 64.4045 69.8105 63.115 70.2526C59.882 71.3866 56.5112 72.0806 53.0932 72.3159C51.1036 72.3159 49.4087 72.3159 49.4087 72.3159L56.7777 77.8058L61.0885 80.9744C62.7636 82.1562 64.1596 83.6905 65.1783 85.4695C65.7739 86.5099 66.1498 87.6613 66.2829 88.8527C66.416 90.0441 66.3034 91.2501 65.952 92.3963C65.0925 95.0005 63.2383 97.1593 60.7937 98.402C57.3937 99.9179 53.5976 100.305 49.9614 99.5073L47.3454 98.9547C46.3485 101.079 44.6776 102.815 42.5925 103.892C39.6628 105.304 36.3809 105.816 33.1602 105.366C29.9342 104.847 26.7966 103.88 23.8385 102.492C23.5127 102.334 23.2237 102.11 22.9902 101.834C22.7566 101.558 22.5839 101.235 22.4831 100.888C22.3823 100.54 22.3558 100.175 22.4052 99.8169C22.4547 99.4585 22.579 99.1145 22.77 98.8073C23.086 98.3238 23.5594 97.9644 24.1099 97.7898C24.6605 97.6153 25.2544 97.6363 25.7913 97.8493C28.2938 99.0556 30.9646 99.8755 33.7129 100.281C35.9111 100.614 38.1586 100.32 40.1976 99.4336C41.4185 98.8016 42.3441 97.7174 42.7767 96.4124C42.9286 95.917 42.9743 95.3951 42.9108 94.8809C42.8473 94.3666 42.6761 93.8715 42.4082 93.428C41.9447 92.5986 41.318 91.8716 40.566 91.291L26.4176 80.7534C25.3203 79.938 23.9597 79.5582 22.5987 79.6875C21.2377 79.8168 19.9729 80.446 19.0487 81.4534L18.6803 81.8587L0.994807 105.881C0.350939 106.757 0.00252663 107.816 0 108.903C0.014752 109.604 0.176508 110.294 0.474806 110.929C0.773104 111.563 1.2013 112.128 1.7317 112.587C9.77313 119.103 18.2148 125.108 27.0072 130.567C27.6704 131.01 29.66 132.115 29.8074 132.225C34.8731 134.907 40.5474 136.229 46.2766 136.063C52.0058 135.898 57.5942 134.25 62.4969 131.281C67.3995 128.312 71.4489 124.123 74.2499 119.123C77.051 114.122 78.5081 108.481 78.4792 102.75C78.4604 98.0257 77.4565 93.3575 75.5316 89.0434C74.5368 86.9433 66.8363 68.742 66.7994 68.742Z" fill="#39B75D"/>
<path d="M42.6293 3.96894C42.2034 3.98786 41.7854 4.0906 41.3992 4.27127C41.013 4.45195 40.6663 4.70702 40.3788 5.02187C40.0913 5.33673 39.8688 5.70519 39.7239 6.10617C39.579 6.50714 39.5146 6.93276 39.5344 7.35865C39.5344 10.3799 39.9397 16.4224 40.0502 19.4437C40.0945 20.1195 40.3853 20.7555 40.8676 21.2309C41.3498 21.7064 41.9899 21.9882 42.6662 22.0228C43.3834 22.053 44.0835 21.799 44.6146 21.3162C45.1458 20.8333 45.4651 20.1605 45.5032 19.4437C45.5032 16.4224 46.0559 10.0852 46.0191 7.06389C46.005 6.63637 45.9056 6.21597 45.7265 5.82748C45.5475 5.43898 45.2925 5.09025 44.9767 4.80182C44.6608 4.5134 44.2903 4.29112 43.8872 4.14808C43.4841 4.00503 43.0564 3.94413 42.6293 3.96894Z" fill="#39B75D"/>
<path d="M70.0049 12.5169C69.2752 12.059 68.3946 11.9067 67.5535 12.0929C66.7123 12.279 65.9783 12.7887 65.5099 13.5117L58.9515 23.6809C58.5715 24.2728 58.4349 24.9888 58.5705 25.679C58.706 26.3693 59.103 26.9805 59.6786 27.3849C60.2543 27.7892 60.9639 27.9555 61.6592 27.8488C62.3545 27.7422 62.9817 27.3709 63.4097 26.8127C65.252 24.4177 69.1943 19.4437 70.7787 16.9751C71.0246 16.633 71.1999 16.2453 71.2942 15.8347C71.3885 15.424 71.4 14.9987 71.3279 14.5835C71.2559 14.1684 71.1018 13.7718 70.8746 13.417C70.6474 13.0621 70.3518 12.7561 70.0049 12.5169Z" fill="#39B75D"/>
<path d="M87.5061 35.1765C87.165 34.3924 86.5312 33.7725 85.7397 33.449C84.9481 33.1255 84.0616 33.124 83.2689 33.4448L72.2155 38.0872C71.584 38.3501 71.0744 38.8407 70.7878 39.4618C70.5011 40.0828 70.4584 40.789 70.6681 41.4401C70.7729 41.7798 70.9441 42.0954 71.1717 42.3686C71.3993 42.6417 71.6787 42.867 71.994 43.0315C72.3092 43.196 72.6539 43.2963 73.0081 43.3267C73.3624 43.3571 73.7191 43.317 74.0578 43.2086C76.9317 42.2875 83.011 40.519 85.8481 39.5242C86.2536 39.3613 86.621 39.1163 86.9273 38.8046C87.2336 38.4929 87.4721 38.1212 87.6278 37.7129C87.7835 37.3046 87.8531 36.8684 87.8321 36.432C87.8112 35.9955 87.7002 35.568 87.5061 35.1765Z" fill="#39B75D"/>
</svg>
